<svg id="visual" viewBox="0 0 900 600" width="900" height="600" xmlns="http://www.w3.org/2000/svg" xmlns:xlink="http://www.w3.org/1999/xlink" version="1.1"><g transform="translate(413.8987417294461 242.39829148438187)"><path d="M84.8 -51.1C134 -59.8 214.7 -55.9 217 -38.9C219.2 -21.9 142.9 8.3 108.5 57.7C74.1 107.1 81.5 175.7 59.7 198.6C38 221.5 -13 198.6 -33.3 161C-53.6 123.5 -43.3 71.2 -62 36.8C-80.7 2.3 -128.5 -14.4 -141.2 -39.3C-153.9 -64.1 -131.6 -97.2 -102.2 -92C-72.8 -86.8 -36.4 -43.4 -9.3 -32.3C17.8 -21.2 35.6 -42.4 84.8 -51.1" fill="none" stroke="#0078ff" stroke-width="10"></path></g></svg>